# xmcd CD database file
#
# Track frame offsets:
#	150
#	40495
#	135630
#	162835
#	195588
#
# Disc length: 2635 seconds
#
# Revision: 0
# Processed by: cddbd v1.5PL3 Copyright (c) Steve Scherf et al.
# Submitted via: CDex 1.50
#
DISCID=3e0a4905
DTITLE=Pat Metheny Quartet - Vienne, France. 07/08/03 [CD2]
DYEAR=2003
DGENRE=Jazz
TTITLE0=As I Am
TTITLE1=Question and Answer
TTITLE2=Summertime
TTITLE3=Timeline
TTITLE4=Drum Solo
EXTD=YEAR: 2003
EXTT0=
EXTT1=
EXTT2=
EXTT3=
EXTT4=
PLAYORDER=
